<?xml version="1.0" encoding="utf-8"?>
<!-- Generator: Adobe Illustrator 24.1.1, SVG Export Plug-In . SVG Version: 6.00 Build 0)  -->
<svg version="1.1" id="Capa_1" xmlns="http://www.w3.org/2000/svg" xmlns:xlink="http://www.w3.org/1999/xlink" x="0px" y="0px"
	 viewBox="0 0 100 78" style="enable-background:new 0 0 100 78;" xml:space="preserve">
<style type="text/css">
	.st0{fill:#FFFFFF;}
</style>
<g>
	<path class="st0" d="M0,48.45c0,0-0.6,18.16,17.46,26.08c14.75,6.22,25.63-1.2,26.19-1.51c0.74-0.4,10.8-6.79,14.42-20.23
		c-0.22-2.74-3.48-6.76-3.48-6.76L34.72,21.56h29.3l0.1,31.85c0,0,0.1,3.81,4.92,3.87c4.21,0.04,19.67,0,19.67,0s3.01,0.2,3.04-3.51
		c0.03-3.64-2.84-3.71-2.84-3.71H72.44V19.2c0,0,0.02-4.46-3.81-4.46c-3.41,0-41.34,0-41.34,0s-2.61-0.2-3.61,2.01
		c-1,2.21,0.5,3.79,0.87,4.22c0.47,0.53,24.75,29.56,24.75,29.56s1.27,1.34,0.67,3.34c-0.6,2.01-5.92,16.86-20.57,16.86
		c-14.65,0-21.32-11.34-22.12-21.57c-0.5-4.06-3.81-3.61-3.81-3.61S0,45.44,0,48.45z"/>
	<path class="st0" d="M62.45,66.21l34.68-0.04c0,0,2.88-0.07,2.88,3.61c0,3.01-2.94,3.08-2.94,3.08s-33.04-0.03-37.32-0.03
		c-4.28,0-4.15-5.58-4.15-5.58L55.52,7.61c0,0-32.36-0.01-32.51,0c-11.48,0.6-13.04,10.84-7.43,16.65
		c0.07,0.07,16.11,17.51,19.2,20.84c4.4,4.74,3.68,8.49,3.68,8.49s-0.63,8.5-10.37,8.5c-14.55,0-11.73-15.36-11.71-15.62
		c0,0-0.02-1.83,3.16-1.84c3.02-0.01,2.93,1.67,2.93,1.67l0.17,5.39c0,0-0.03,4.81,5.15,4.78c4.68-0.5,5.05-3.88,0.83-8.09
		L8.33,25.77c0,0-7.32-9.33-1-17.96c4.59-6.27,9.8-6.82,15.95-6.82c0.1,0,34.95,0.1,34.95,0.1s3.61,0.2,3.61,3.21c0,3.01,0,61,0,61
		S61.94,66.1,62.45,66.21z"/>
</g>
</svg>
